<svg width="128" height="32" viewBox="0 0 128 32" fill="none" xmlns="http://www.w3.org/2000/svg">
<path d="M19.648 2.496C20.6293 2.496 21.44 2.464 22.08 2.4V3.04C21.5467 3.232 21.024 3.63733 20.512 4.256C20 4.87467 19.5413 5.73867 19.136 6.848L12.384 25.12C12.1493 25.0987 11.776 25.088 11.264 25.088C10.7733 25.088 10.4107 25.0987 10.176 25.12L2.016 5.088C1.73867 4.384 1.41867 3.872 1.056 3.552C0.693333 3.232 0.341333 3.06133 0 3.04V2.4C1.28 2.464 2.90133 2.496 4.864 2.496C7.06133 2.496 8.68267 2.464 9.728 2.4V3.04C8.91733 3.08267 8.34133 3.17867 8 3.328C7.65867 3.47733 7.488 3.776 7.488 4.224C7.488 4.58667 7.616 5.088 7.872 5.728L13.504 20.064L17.44 9.44C18.0373 7.79733 18.336 6.496 18.336 5.536C18.336 4.68267 18.1013 4.064 17.632 3.68C17.184 3.296 16.5227 3.08267 15.648 3.04V2.4C17.0987 2.464 18.432 2.496 19.648 2.496Z" fill="white"/>
<path d="M25.7495 0.256001C26.6455 0.256001 27.3495 0.480001 27.8615 0.928001C28.3948 1.35467 28.6615 1.952 28.6615 2.72C28.6615 3.488 28.3948 4.096 27.8615 4.544C27.3495 4.97067 26.6455 5.184 25.7495 5.184C24.8535 5.184 24.1388 4.97067 23.6055 4.544C23.0935 4.096 22.8375 3.488 22.8375 2.72C22.8375 1.952 23.0935 1.35467 23.6055 0.928001C24.1388 0.480001 24.8535 0.256001 25.7495 0.256001ZM28.2455 22.08C28.2455 22.9547 28.3948 23.5627 28.6935 23.904C29.0135 24.224 29.5468 24.384 30.2935 24.384V25.056C28.1602 24.9707 26.7415 24.928 26.0375 24.928C25.3762 24.928 23.8935 24.9707 21.5895 25.056V24.384C22.3575 24.384 22.8908 24.224 23.1895 23.904C23.4882 23.5627 23.6375 22.9547 23.6375 22.08V12C23.6375 11.0187 23.4882 10.304 23.1895 9.856C22.8908 9.408 22.3575 9.184 21.5895 9.184V8.512C22.2722 8.576 22.9335 8.608 23.5735 8.608C25.4722 8.608 27.0295 8.45867 28.2455 8.16V22.08Z" fill="white"/>
<path d="M38.2113 22.08C38.2113 22.9547 38.3606 23.5627 38.6593 23.904C38.9579 24.224 39.4912 24.384 40.2593 24.384V25.056C38.0406 24.9707 36.6112 24.928 35.9712 24.928C35.2459 24.928 33.7739 24.9707 31.5553 25.056V24.384C32.3019 24.384 32.8246 24.224 33.1232 23.904C33.4432 23.5627 33.6032 22.9547 33.6032 22.08V3.84C33.6032 2.85867 33.4432 2.144 33.1232 1.696C32.8246 1.248 32.3019 1.024 31.5553 1.024V0.352001C32.2379 0.416 32.8993 0.448 33.5392 0.448C35.3952 0.448 36.9526 0.298667 38.2113 0V22.08Z" fill="white"/>
<path d="M48.3363 22.08C48.3363 22.9547 48.4856 23.5627 48.7843 23.904C49.0829 24.224 49.6162 24.384 50.3843 24.384V25.056C48.1656 24.9707 46.7362 24.928 46.0962 24.928C45.3709 24.928 43.8989 24.9707 41.6802 25.056V24.384C42.4269 24.384 42.9496 24.224 43.2482 23.904C43.5682 23.5627 43.7282 22.9547 43.7282 22.08V3.84C43.7282 2.85867 43.5682 2.144 43.2482 1.696C42.9496 1.248 42.4269 1.024 41.6802 1.024V0.352001C42.3629 0.416 43.0243 0.448 43.6642 0.448C45.5202 0.448 47.0776 0.298667 48.3363 0V22.08Z" fill="white"/>
<path d="M55.9697 25.28C54.6044 25.28 53.5804 24.928 52.8978 24.224C52.2364 23.52 51.9058 22.592 51.9058 21.44C51.9058 20.48 52.1511 19.6907 52.6418 19.072C53.1538 18.432 53.7618 17.9413 54.4658 17.6C55.1911 17.2587 56.1084 16.896 57.2178 16.512C58.3911 16.1067 59.2444 15.744 59.7778 15.424C60.3324 15.0827 60.6098 14.624 60.6098 14.048V11.552C60.6098 10.656 60.3964 9.96267 59.9697 9.472C59.5644 8.96 58.9244 8.704 58.0498 8.704C57.0257 8.704 56.2471 8.96 55.7137 9.472C56.3111 9.68533 56.7698 10.0053 57.0898 10.432C57.4311 10.8587 57.6017 11.36 57.6017 11.936C57.6017 12.6613 57.3564 13.2373 56.8657 13.664C56.3751 14.0907 55.7777 14.304 55.0737 14.304C54.3271 14.304 53.7511 14.0693 53.3457 13.6C52.9404 13.1307 52.7378 12.544 52.7378 11.84C52.7378 11.2427 52.8764 10.7413 53.1538 10.336C53.4524 9.90933 53.9004 9.51467 54.4977 9.152C55.0737 8.81067 55.7777 8.544 56.6097 8.352C57.4631 8.16 58.3911 8.064 59.3937 8.064C60.4391 8.064 61.3457 8.17067 62.1138 8.384C62.8818 8.59733 63.5218 8.96 64.0338 9.472C64.5031 9.94133 64.8124 10.5173 64.9618 11.2C65.1324 11.8827 65.2178 12.8107 65.2178 13.984V22.688C65.2178 23.2 65.2604 23.5627 65.3457 23.776C65.4524 23.9893 65.6444 24.096 65.9218 24.096C66.2418 24.096 66.6258 23.9147 67.0738 23.552L67.3938 24.096C66.4338 24.8853 65.2604 25.28 63.8738 25.28C62.7004 25.28 61.8791 25.0453 61.4098 24.576C60.9404 24.1067 60.6951 23.4773 60.6738 22.688C59.6071 24.416 58.0391 25.28 55.9697 25.28ZM58.4338 23.232C59.2658 23.232 59.9911 22.7947 60.6098 21.92V15.36C60.3538 15.7867 59.8097 16.256 58.9777 16.768C58.1457 17.3013 57.5164 17.8347 57.0898 18.368C56.6631 18.9013 56.4497 19.6693 56.4497 20.672C56.4497 21.5467 56.6311 22.1973 56.9938 22.624C57.3564 23.0293 57.8364 23.232 58.4338 23.232Z" fill="white"/>
<path d="M83.4762 11.584C83.0496 11.584 82.6869 11.4453 82.3883 11.168C82.0896 10.8693 81.9403 10.4533 81.9403 9.92C81.9403 9.408 82.0683 8.88533 82.3242 8.352C81.8122 8.56533 81.3856 8.81067 81.0443 9.088C80.7243 9.344 80.4469 9.67467 80.2122 10.08C80.8736 10.8693 81.2043 11.8933 81.2043 13.152C81.2043 14.8373 80.6176 16.1067 79.4443 16.96C78.2923 17.8133 76.7562 18.24 74.8363 18.24H74.2603C73.3856 18.752 72.9482 19.3173 72.9482 19.936C72.9482 20.6187 73.3749 20.96 74.2282 20.96H77.7162C79.5936 20.96 81.0869 21.312 82.1963 22.016C83.3269 22.6987 83.8923 23.7547 83.8923 25.184C83.8923 26.272 83.5403 27.2533 82.8363 28.128C82.1536 29.024 81.1082 29.7387 79.7002 30.272C78.2923 30.8053 76.5642 31.072 74.5163 31.072C72.4469 31.072 70.7829 30.8053 69.5243 30.272C68.2869 29.76 67.6683 29.0133 67.6683 28.032C67.6683 27.3707 67.9669 26.7733 68.5642 26.24C69.1616 25.728 70.0469 25.3227 71.2203 25.024L71.5082 25.536C70.7402 26.176 70.3562 26.912 70.3562 27.744C70.3562 28.64 70.7616 29.3227 71.5723 29.792C72.3829 30.2827 73.5029 30.528 74.9323 30.528C76.4256 30.528 77.6309 30.2293 78.5482 29.632C79.4869 29.0347 79.9563 28.192 79.9563 27.104C79.9563 26.4 79.6896 25.8453 79.1562 25.44C78.6442 25.0347 77.7376 24.832 76.4362 24.832H74.4522C73.0869 24.832 72.0202 24.608 71.2523 24.16C70.4843 23.6907 70.1003 22.9867 70.1003 22.048C70.1003 21.2587 70.3776 20.5547 70.9323 19.936C71.4869 19.3173 72.3296 18.72 73.4603 18.144C71.9242 17.952 70.7083 17.44 69.8122 16.608C68.9162 15.776 68.4682 14.624 68.4682 13.152C68.4682 11.4667 69.0443 10.1973 70.1963 9.344C71.3696 8.49067 72.9163 8.064 74.8363 8.064C76.9696 8.064 78.6016 8.56533 79.7323 9.568C80.1376 8.992 80.6389 8.53333 81.2363 8.192C81.8336 7.85067 82.4416 7.68 83.0602 7.68C83.7002 7.68 84.2016 7.872 84.5642 8.256C84.9482 8.61867 85.1403 9.09867 85.1403 9.696C85.1403 10.2933 84.9696 10.7627 84.6283 11.104C84.3083 11.424 83.9242 11.584 83.4762 11.584ZM74.8363 17.664C75.4336 17.664 75.8816 17.3227 76.1803 16.64C76.5003 15.9573 76.6602 14.7947 76.6602 13.152C76.6602 11.5093 76.5003 10.3467 76.1803 9.664C75.8816 8.98133 75.4336 8.64 74.8363 8.64C74.2389 8.64 73.7803 8.98133 73.4603 9.664C73.1616 10.3467 73.0123 11.5093 73.0123 13.152C73.0123 14.7947 73.1616 15.9573 73.4603 16.64C73.7803 17.3227 74.2389 17.664 74.8363 17.664Z" fill="white"/>
<path d="M101.932 21.568C101.932 22.5493 102.081 23.264 102.38 23.712C102.7 24.16 103.233 24.384 103.98 24.384V25.056C103.318 24.992 102.657 24.96 101.996 24.96C100.14 24.96 98.5824 25.1093 97.3238 25.408V22.528C96.3424 24.512 94.6251 25.504 92.1718 25.504C90.5718 25.504 89.4091 25.088 88.6837 24.256C88.3424 23.8507 88.0864 23.328 87.9157 22.688C87.7664 22.0267 87.6917 21.1627 87.6917 20.096V12C87.6917 11.0187 87.5318 10.304 87.2118 9.856C86.9131 9.408 86.3904 9.184 85.6438 9.184V8.512C86.3051 8.576 86.9664 8.608 87.6277 8.608C89.4837 8.608 91.0411 8.45867 92.2998 8.16V21.408C92.2998 22.304 92.4278 22.976 92.6838 23.424C92.9611 23.872 93.4731 24.096 94.2197 24.096C95.0731 24.096 95.7984 23.744 96.3958 23.04C97.0144 22.3147 97.3238 21.4293 97.3238 20.384V12C97.3238 11.0187 97.1637 10.304 96.8438 9.856C96.5451 9.408 96.0224 9.184 95.2757 9.184V8.512C95.9584 8.576 96.6198 8.608 97.2598 8.608C99.1158 8.608 100.673 8.45867 101.932 8.16V21.568Z" fill="white"/>
<path d="M114.81 22.88C116.559 22.88 117.967 22.0267 119.034 20.32L119.61 20.512C119.183 21.8987 118.415 23.0827 117.306 24.064C116.218 25.024 114.853 25.504 113.21 25.504C110.949 25.504 109.146 24.7893 107.802 23.36C106.479 21.9093 105.818 19.776 105.818 16.96C105.818 14.08 106.533 11.8827 107.962 10.368C109.391 8.832 111.29 8.064 113.658 8.064C117.669 8.064 119.674 10.432 119.674 15.168H110.682C110.661 15.488 110.65 15.9893 110.65 16.672C110.65 18.08 110.842 19.2533 111.226 20.192C111.631 21.1307 112.143 21.8133 112.762 22.24C113.402 22.6667 114.085 22.88 114.81 22.88ZM113.466 8.736C112.698 8.736 112.058 9.216 111.546 10.176C111.055 11.1147 110.746 12.576 110.618 14.56H115.642C115.685 12.8747 115.514 11.488 115.13 10.4C114.767 9.29067 114.213 8.736 113.466 8.736Z" fill="white"/>
<path d="M125.079 20.576C125.911 20.576 126.572 20.8 127.063 21.248C127.554 21.6747 127.799 22.272 127.799 23.04C127.799 23.808 127.554 24.416 127.063 24.864C126.572 25.2907 125.911 25.504 125.079 25.504C124.247 25.504 123.586 25.2907 123.095 24.864C122.604 24.416 122.359 23.808 122.359 23.04C122.359 22.272 122.604 21.6747 123.095 21.248C123.586 20.8 124.247 20.576 125.079 20.576Z" fill="white"/>
</svg>
