<svg width="13" height="13" viewBox="0 0 13 13" fill="none" xmlns="http://www.w3.org/2000/svg">
<path d="M12.6191 9.19141C12.8223 9.29297 12.9746 9.52148 12.9746 9.77539C12.9746 9.80078 12.9746 9.85156 12.9746 9.90234L12.3652 12.543C12.2891 12.8223 12.0605 13 11.7812 13C5.25586 13 0 7.74414 0 1.21875C0 0.939453 0.177734 0.710938 0.457031 0.634766L3.09766 0.0253906C3.14844 0.0253906 3.19922 0 3.22461 0C3.47852 0 3.70703 0.152344 3.80859 0.380859L5.02734 3.22461C5.05273 3.30078 5.07812 3.37695 5.07812 3.45312C5.07812 3.65625 4.97656 3.83398 4.84961 3.93555L3.30078 5.20508C4.24023 7.18555 5.81445 8.75977 7.79492 9.69922L9.06445 8.15039C9.16602 8.02344 9.34375 7.92188 9.52148 7.92188C9.62305 7.92188 9.69922 7.94727 9.77539 7.97266L12.6191 9.19141Z" fill="#D52B22"/>
</svg>
