<svg width="14" height="14" viewBox="0 0 14 14" fill="none" xmlns="http://www.w3.org/2000/svg">
<path d="M13.5898 9.89844C13.8086 10.0078 13.9727 10.2539 13.9727 10.5273C13.9727 10.5547 13.9727 10.6094 13.9727 10.6641L13.3164 13.5078C13.2344 13.8086 12.9883 14 12.6875 14C5.66016 14 0 8.33984 0 1.3125C0 1.01172 0.191406 0.765625 0.492188 0.683594L3.33594 0.0273438C3.39062 0.0273438 3.44531 0 3.47266 0C3.74609 0 3.99219 0.164062 4.10156 0.410156L5.41406 3.47266C5.44141 3.55469 5.46875 3.63672 5.46875 3.71875C5.46875 3.9375 5.35938 4.12891 5.22266 4.23828L3.55469 5.60547C4.56641 7.73828 6.26172 9.43359 8.39453 10.4453L9.76172 8.77734C9.87109 8.64062 10.0625 8.53125 10.2539 8.53125C10.3633 8.53125 10.4453 8.55859 10.5273 8.58594L13.5898 9.89844Z" fill="white"/>
</svg>
