<svg xmlns="http://www.w3.org/2000/svg" width="48" height="48" fill="rgba(89,183,49,1)" viewBox="0 0 48 48"><g fill="none" stroke="rgba(89,183,49,1)" stroke-width="2" stroke-linecap="round" stroke-linejoin="round" stroke-miterlimit="10"><path d="M46.44 18.947c2.278 10.09-2.507 20.807-12.18 25.63-9.59 4.782-20.917 2.243-27.625-5.495M1.543 28.963C-.693 18.9 4.095 8.23 13.737 3.423c9.872-4.924 21.588-2.085 28.21 6.194"/><path d="M41.87 2.615l1.768 8.38-8.07.07M6.723 46.06l-1.768-8.382 8.072-.07"/></g><path d="M22.98 35.648v-2.813c-1.614-.027-3.287-.53-4.262-1.226l.67-1.868A7.426 7.426 0 0 0 23.4 30.94c1.977 0 3.315-1.143 3.315-2.73 0-1.532-1.088-2.48-3.148-3.314-2.84-1.114-4.597-2.395-4.597-4.82 0-2.312 1.645-4.066 4.207-4.484V12.78h1.728v2.7c1.67.057 2.812.502 3.62.976l-.695 1.838a6.745 6.745 0 0 0-3.512-.947c-2.145 0-2.952 1.282-2.952 2.396 0 1.448 1.03 2.173 3.455 3.175 2.87 1.17 4.32 2.62 4.32 5.098 0 2.2-1.534 4.263-4.403 4.736v2.896H22.98z"/></svg>